<svg width="57" height="19" viewBox="0 0 57 19" fill="none" xmlns="http://www.w3.org/2000/svg">
<g clip-path="url(#clip0_21_892)">
<path d="M54.3783 6.79697H56.9936C56.6628 4.25153 54.8038 2.91357 52.2199 2.91357C49.6047 2.91357 47.856 4.30051 47.856 6.68275C47.856 9.39132 50.1089 9.99499 51.3062 10.2398C52.8501 10.5498 54.3626 10.5825 54.3626 11.953C54.3626 12.8831 53.6064 13.34 52.5351 13.34C51.2117 13.34 50.3295 12.6547 50.1089 11.4146H47.5251C47.6826 14.0906 49.5575 15.5264 52.3146 15.5264C54.8668 15.5264 56.9621 14.319 56.9621 11.7083C56.9621 8.9018 54.5517 8.39601 52.8659 8.13492C51.7158 7.95547 50.4555 7.79227 50.4555 6.53588C50.4555 5.65479 51.1014 5.11636 52.1885 5.11636C53.4489 5.11636 54.205 5.85065 54.3783 6.79697Z" fill="white"/>
<path d="M46.0915 3.32153H43.618V15.1511H46.0915V3.32153Z" fill="white"/>
<path d="M36.1503 11.0231H39.3801C38.8759 12.2959 37.7415 12.8995 36.4339 12.8995C34.1338 12.8995 33.0625 11.0557 33.0625 9.22825C33.0625 7.38444 34.0707 5.50805 36.4182 5.50805C37.8518 5.50805 38.9231 6.19335 39.3327 7.41709L41.9952 7.41711C41.5384 4.65963 39.2067 3.0769 36.4497 3.0769C33.0467 3.0769 30.4945 5.4754 30.4945 9.26091C30.4945 13.0953 33.2672 15.3633 36.4339 15.3633C39.5533 15.3633 41.9952 13.2585 41.9952 9.96254V8.99982H36.1503V11.0231Z" fill="white"/>
<path d="M24.8386 3.0769C22.0028 3.0769 19.9074 4.92065 19.9232 7.98819H22.4754C22.4439 6.65023 23.2631 5.42649 24.7125 5.42649C25.9729 5.42649 26.7134 6.34024 26.7134 7.38445C26.7134 8.42873 25.9729 9.01615 24.6022 9.65255C22.7274 10.5173 21.3883 11.0721 20.0177 11.5616V15.1512H29.565V12.7363H23.0106C23.0106 12.7363 23.0325 12.7293 23.0432 12.7259C24.158 12.3761 24.9955 11.996 25.9887 11.5453C28.1155 10.5663 29.3286 9.34247 29.3286 7.25397C29.3286 4.6922 27.5011 3.0769 24.8386 3.0769Z" fill="white"/>
<path d="M13.2117 10.9905C9.99777 11.0068 9.47788 13.0137 9.30461 14.7107L9.22585 15.4612H8.57986L8.5011 14.7107C8.32783 13.0137 7.79218 11.0068 4.6885 10.9905C4.16861 9.88089 3.94805 8.98348 3.94805 7.97185C3.94805 5.44281 5.94889 3.07682 8.9107 3.07682C11.8726 3.07682 13.8419 5.42641 13.8419 7.98825C13.8419 8.98348 13.7474 9.88089 13.2117 10.9905ZM8.87924 0.00927734C3.99536 0.00927734 -0.00634193 4.15376 -0.00634193 9.22818C-0.00634193 14.3191 3.99536 18.4635 8.87924 18.4635C13.8104 18.4635 17.7963 14.3191 17.7963 9.22818C17.7963 4.15377 13.8104 0.00927734 8.87924 0.00927734Z" fill="#00985F"/>
</g>
<defs>
<clipPath id="clip0_21_892">
<rect width="57" height="18.4542" fill="white"/>
</clipPath>
</defs>
</svg>
