<svg width="12" height="12" viewBox="0 0 12 12" fill="none" xmlns="http://www.w3.org/2000/svg">
<path fill-rule="evenodd" clip-rule="evenodd" d="M2.46437 8.9942C0.589967 7.1194 0.589967 4.0802 2.46437 2.2062C4.33917 0.3314 7.37797 0.3314 9.25237 2.2062C9.69883 2.65129 10.0529 3.18024 10.2943 3.76263C10.5356 4.34502 10.6595 4.96938 10.6588 5.5998C10.6588 5.70589 10.7009 5.80763 10.7759 5.88264C10.8509 5.95766 10.9527 5.9998 11.0588 5.9998C11.1649 5.9998 11.2666 5.95766 11.3416 5.88264C11.4166 5.80763 11.4588 5.70589 11.4588 5.5998C11.4596 4.86422 11.3152 4.13572 11.0337 3.45614C10.7522 2.77655 10.3391 2.15929 9.81837 1.6398C7.63157 -0.5466 4.08557 -0.5466 1.89877 1.6398C-0.288033 3.827 -0.288033 7.373 1.89877 9.5598C2.41829 10.0805 3.03557 10.4934 3.71515 10.7749C4.39473 11.0563 5.12322 11.2007 5.85877 11.1998C5.96485 11.1998 6.0666 11.1577 6.14161 11.0826C6.21662 11.0076 6.25877 10.9059 6.25877 10.7998C6.25877 10.6937 6.21662 10.592 6.14161 10.517C6.0666 10.4419 5.96485 10.3998 5.85877 10.3998C5.22826 10.4008 4.60378 10.2771 4.02125 10.0359C3.43871 9.79464 2.90961 9.44063 2.46437 8.9942ZM6.27957 5.5074C6.20787 5.48099 6.13011 5.47567 6.05549 5.49206C5.98087 5.50846 5.9125 5.54588 5.85847 5.59991C5.80445 5.65393 5.76702 5.7223 5.75063 5.79692C5.73424 5.87155 5.73956 5.94931 5.76597 6.021L7.74597 11.395C7.7761 11.4768 7.83211 11.5465 7.90549 11.5935C7.97886 11.6405 8.06559 11.6623 8.15247 11.6555C8.23936 11.6487 8.32165 11.6137 8.38683 11.5559C8.45201 11.498 8.49651 11.4205 8.51357 11.335L9.02677 8.7682L11.594 8.255C11.6794 8.23794 11.757 8.19344 11.8148 8.12826C11.8727 8.06308 11.9077 7.98079 11.9145 7.89391C11.9213 7.80702 11.8995 7.7203 11.8525 7.64692C11.8054 7.57354 11.7357 7.51753 11.654 7.4874L6.27957 5.5074ZM8.29477 8.3498L8.00677 9.7894L6.81637 6.5574L10.048 7.7482L8.60837 8.0362C8.53099 8.05171 8.45993 8.08976 8.40413 8.14556C8.34832 8.20136 8.31027 8.27242 8.29477 8.3498ZM3.59597 3.3374C3.2107 3.72243 2.93008 4.19942 2.78069 4.72322C2.63131 5.24701 2.61809 5.80027 2.74231 6.3306C2.86652 6.86093 3.12404 7.35078 3.49049 7.75376C3.85694 8.15674 4.32019 8.45951 4.83637 8.6334C4.88752 8.649 4.93503 8.6747 4.97608 8.70898C5.01714 8.74326 5.0509 8.78542 5.07537 8.83298C5.09984 8.88053 5.11453 8.93251 5.11856 8.98584C5.1226 9.03917 5.11589 9.09276 5.09885 9.14346C5.08181 9.19415 5.05478 9.24092 5.01935 9.28098C4.98392 9.32104 4.94082 9.3536 4.89259 9.37671C4.84436 9.39983 4.79199 9.41304 4.73857 9.41556C4.68514 9.41809 4.63176 9.40987 4.58157 9.3914C3.99678 9.19477 3.46564 8.86504 3.02997 8.4282C1.46797 6.8662 1.46797 4.3338 3.02997 2.7714C4.59237 1.2094 7.12477 1.2094 8.68717 2.7714C9.12386 3.20711 9.45345 3.73825 9.64997 4.323C9.68376 4.42357 9.67621 4.53344 9.62899 4.62845C9.58177 4.72346 9.49874 4.79581 9.39817 4.8296C9.2976 4.86339 9.18772 4.85584 9.09272 4.80862C8.99771 4.7614 8.92536 4.67837 8.89157 4.5778C8.71764 4.0617 8.41488 3.59853 8.01193 3.23214C7.60898 2.86574 7.11919 2.60826 6.58892 2.48405C6.05865 2.35984 5.50546 2.37303 4.98171 2.52236C4.45797 2.67169 3.981 2.95222 3.59597 3.3374ZM4.72717 6.7314C4.56941 6.57312 4.44657 6.38355 4.36654 6.1749C4.28651 5.96625 4.25108 5.74315 4.26253 5.51997C4.27397 5.2968 4.33204 5.07849 4.43299 4.87913C4.53395 4.67976 4.67554 4.50375 4.84866 4.36244C5.02178 4.22112 5.22258 4.11764 5.43812 4.05866C5.65367 3.99968 5.87918 3.9865 6.10013 4.01998C6.32107 4.05346 6.53256 4.13285 6.72095 4.25304C6.90935 4.37323 7.07048 4.53155 7.19397 4.7178C7.25281 4.80568 7.34407 4.86669 7.44777 4.88746C7.55148 4.90824 7.65919 4.88709 7.74734 4.82866C7.8355 4.77022 7.89693 4.67925 7.91818 4.57564C7.93944 4.47203 7.91879 4.36423 7.86077 4.2758C7.6643 3.97937 7.4044 3.73031 7.09988 3.54662C6.79536 3.36294 6.45383 3.24923 6.09998 3.21371C5.74612 3.17819 5.3888 3.22175 5.05385 3.34125C4.7189 3.46074 4.41469 3.65318 4.16322 3.90465C3.91175 4.15612 3.71931 4.46033 3.59982 4.79528C3.48032 5.13023 3.43676 5.48756 3.47228 5.84141C3.50779 6.19526 3.62151 6.53679 3.80519 6.84131C3.98887 7.14583 4.23794 7.40573 4.53437 7.6022C4.62279 7.66023 4.7306 7.68087 4.83421 7.65961C4.93782 7.63836 5.02879 7.57693 5.08722 7.48878C5.14566 7.40062 5.1668 7.29291 5.14603 7.18921C5.12525 7.0855 5.06425 6.99424 4.97637 6.9354C4.88669 6.8759 4.80321 6.80755 4.72717 6.7314Z" fill="#00985F"/>
</svg>
