<svg width="48" height="51" viewBox="0 0 48 51" fill="none" xmlns="http://www.w3.org/2000/svg">
<path d="M37.0427 37.6341C31.3884 37.6341 26.7769 33.0342 26.7769 27.3683C26.7769 21.7024 31.3768 17.1024 37.0427 17.1024C42.7086 17.1024 47.3085 21.7024 47.3085 27.3683C47.3085 33.0342 42.7086 37.6341 37.0427 37.6341ZM37.0427 18.2611C32.0257 18.2611 27.9356 22.3512 27.9356 27.3683C27.9356 32.3853 32.0257 36.4754 37.0427 36.4754C42.0598 36.4754 46.1499 32.3853 46.1499 27.3683C46.1499 22.3512 42.0598 18.2611 37.0427 18.2611Z" fill="#00985F"/>
<path d="M37.0427 34.6563C33.0221 34.6563 29.7431 31.3888 29.7431 27.3567C29.7431 23.3245 33.0105 20.0686 37.0427 20.0686C41.0749 20.0686 44.3424 23.3361 44.3424 27.3567C44.3424 31.3888 41.0633 34.6563 37.0427 34.6563ZM37.0427 21.2273C33.6594 21.2273 30.9018 23.9849 30.9018 27.3567C30.9018 30.7284 33.6594 33.4976 37.0427 33.4976C40.426 33.4976 43.1837 30.74 43.1837 27.3567C43.1837 23.9733 40.426 21.2273 37.0427 21.2273Z" fill="#00985F"/>
<path d="M34.7949 31.4004C34.679 31.4004 34.5516 31.3657 34.4589 31.2846C34.2503 31.1339 34.1692 30.879 34.2503 30.6357L34.9803 28.3879L33.0685 27.0091C32.8599 26.8584 32.7788 26.6035 32.8599 26.3602C32.941 26.1169 33.1612 25.9547 33.4161 25.9547H35.7798L36.5097 23.7069C36.5908 23.4635 36.811 23.3013 37.0659 23.3013C37.3208 23.3013 37.5409 23.4635 37.6221 23.7069L38.352 25.9547H40.7157C40.9706 25.9547 41.1908 26.1169 41.2719 26.3602C41.353 26.6035 41.2603 26.8584 41.0633 27.0091L39.1515 28.3879L39.8815 30.6357C39.9626 30.879 39.8699 31.1339 39.6729 31.2846C39.4759 31.4352 39.1979 31.4352 38.9893 31.2846L37.0775 29.8942L35.1657 31.2846C35.0382 31.3657 34.9224 31.4004 34.7949 31.4004ZM35.2004 27.1365L35.9999 27.7159C36.2085 27.8665 36.2896 28.1214 36.2085 28.3647L35.9072 29.3032L36.7067 28.7239C36.9153 28.5733 37.1818 28.5733 37.3903 28.7239L38.1898 29.3032L37.8886 28.3647C37.8074 28.1214 37.9001 27.8665 38.0971 27.7159L38.8966 27.1365H37.9117C37.6568 27.1365 37.4367 26.9743 37.3556 26.731L37.0543 25.7925L36.7531 26.731C36.6719 26.9743 36.4518 27.1365 36.1969 27.1365H35.2004ZM33.1843 50.9936C33.1148 50.9936 33.0453 50.982 32.9758 50.9588C32.7441 50.8777 32.605 50.6575 32.605 50.4142V36.2437C32.605 35.9192 32.8599 35.6643 33.1843 35.6643C33.5088 35.6643 33.7637 35.9192 33.7637 36.2437V48.8732L36.5445 45.71C36.6488 45.5826 36.811 45.513 36.9732 45.513C37.1354 45.513 37.2976 45.5826 37.4019 45.6984L40.3218 48.908V36.2437C40.3218 35.9192 40.5767 35.6643 40.9011 35.6643C41.2255 35.6643 41.4804 35.9192 41.4804 36.2437V50.4142C41.4804 50.6575 41.3298 50.8661 41.1097 50.9588C40.8895 51.0515 40.6346 50.982 40.4724 50.8082L36.9848 46.9614L33.6131 50.7966C33.5088 50.924 33.3466 50.9936 33.1843 50.9936Z" fill="#00985F"/>
<path d="M33.1843 46.0808H0.579336C0.254908 46.0808 0 45.8259 0 45.5014V0.579763C0 0.255335 0.254908 0.000427246 0.579336 0.000427246H26.7306C27.055 0.000427246 27.3099 0.255335 27.3099 0.579763C27.3099 0.904191 27.055 1.1591 26.7306 1.1591H1.15867V44.9221H32.5934V36.2437C32.5934 35.9192 32.8483 35.6643 33.1728 35.6643C33.4972 35.6643 33.7521 35.9192 33.7521 36.2437V45.5014C33.7637 45.8259 33.4972 46.0808 33.1843 46.0808ZM34.4936 18.5971C34.1692 18.5971 33.9143 18.3422 33.9143 18.0178V8.34286C33.9143 8.01843 34.1692 7.76352 34.4936 7.76352C34.8181 7.76352 35.073 8.01843 35.073 8.34286V18.0178C35.073 18.3422 34.8181 18.5971 34.4936 18.5971Z" fill="#00985F"/>
<path d="M34.4936 8.92221H26.7305C26.4061 8.92221 26.1512 8.6673 26.1512 8.34287V0.579774C26.1512 0.34804 26.2902 0.127892 26.5104 0.0467852C26.7305 -0.0459085 26.9739 0.000438324 27.1477 0.174239L34.9108 7.93734C35.073 8.09955 35.1309 8.35446 35.0382 8.56302C34.9455 8.78317 34.737 8.92221 34.4936 8.92221ZM27.3099 7.76354H33.1032L27.3099 1.97018V7.76354ZM30.0443 19.0722H5.0518C4.72738 19.0722 4.47247 18.8173 4.47247 18.4928C4.47247 18.1684 4.72738 17.9135 5.0518 17.9135H30.0443C30.3688 17.9135 30.6237 18.1684 30.6237 18.4928C30.6237 18.8173 30.3688 19.0722 30.0443 19.0722ZM30.0443 16.7201H8.95653C8.6321 16.7201 8.37719 16.4652 8.37719 16.1407C8.37719 15.8163 8.6321 15.5614 8.95653 15.5614H30.0559C30.3804 15.5614 30.6353 15.8163 30.6353 16.1407C30.6353 16.4652 30.3688 16.7201 30.0443 16.7201ZM30.0443 14.3564H8.95653C8.6321 14.3564 8.37719 14.1015 8.37719 13.777C8.37719 13.4526 8.6321 13.1977 8.95653 13.1977H30.0559C30.3804 13.1977 30.6353 13.4526 30.6353 13.777C30.6353 14.1015 30.3688 14.3564 30.0443 14.3564ZM30.0443 11.9927H11.552C11.2275 11.9927 10.9726 11.7378 10.9726 11.4134C10.9726 11.0889 11.2275 10.834 11.552 10.834H30.0443C30.3688 10.834 30.6237 11.0889 30.6237 11.4134C30.6237 11.7378 30.3688 11.9927 30.0443 11.9927ZM29.0247 22.5134H5.0518C4.72738 22.5134 4.47247 22.2585 4.47247 21.9341C4.47247 21.6097 4.72738 21.3548 5.0518 21.3548H29.0247C29.3491 21.3548 29.6041 21.6097 29.6041 21.9341C29.6041 22.2585 29.3491 22.5134 29.0247 22.5134ZM27.6111 25.7577H13.3827C13.0582 25.7577 12.8033 25.5028 12.8033 25.1784C12.8033 24.8539 13.0582 24.599 13.3827 24.599H27.5995C27.924 24.599 28.1789 24.8539 28.1789 25.1784C28.1789 25.5028 27.924 25.7577 27.6111 25.7577ZM27.4142 29.002H13.3827C13.0582 29.002 12.8033 28.7471 12.8033 28.4226C12.8033 28.0982 13.0582 27.8433 13.3827 27.8433H27.4142C27.7386 27.8433 27.9935 28.0982 27.9935 28.4226C27.9935 28.7471 27.7386 29.002 27.4142 29.002ZM28.3643 32.2463H13.3827C13.0582 32.2463 12.8033 31.9914 12.8033 31.6669C12.8033 31.3425 13.0582 31.0876 13.3827 31.0876H28.3643C28.6887 31.0876 28.9436 31.3425 28.9436 31.6669C28.9436 31.9914 28.6887 32.2463 28.3643 32.2463ZM27.4953 35.4905H5.0518C4.72738 35.4905 4.47247 35.2356 4.47247 34.9112C4.47247 34.5868 4.72738 34.3319 5.0518 34.3319H27.4953C27.8197 34.3319 28.0746 34.5868 28.0746 34.9112C28.0746 35.2356 27.8197 35.4905 27.4953 35.4905ZM25.3749 38.7348H5.0518C4.72738 38.7348 4.47247 38.4799 4.47247 38.1555C4.47247 37.8311 4.72738 37.5761 5.0518 37.5761H25.3633C25.6877 37.5761 25.9426 37.8311 25.9426 38.1555C25.9426 38.4799 25.6877 38.7348 25.3749 38.7348ZM25.2359 41.9791H5.0518C4.72738 41.9791 4.47247 41.7242 4.47247 41.3998C4.47247 41.0753 4.72738 40.8204 5.0518 40.8204H25.2243C25.5487 40.8204 25.8036 41.0753 25.8036 41.3998C25.8036 41.7242 25.5487 41.9791 25.2359 41.9791ZM9.08398 25.7577H5.0518C4.72738 25.7577 4.47247 25.5028 4.47247 25.1784C4.47247 24.8539 4.72738 24.599 5.0518 24.599H9.08398C9.40841 24.599 9.66332 24.8539 9.66332 25.1784C9.66332 25.5028 9.40841 25.7577 9.08398 25.7577ZM9.08398 29.002H5.0518C4.72738 29.002 4.47247 28.7471 4.47247 28.4226C4.47247 28.0982 4.72738 27.8433 5.0518 27.8433H9.08398C9.40841 27.8433 9.66332 28.0982 9.66332 28.4226C9.66332 28.7471 9.40841 29.002 9.08398 29.002ZM9.08398 32.2463H5.0518C4.72738 32.2463 4.47247 31.9914 4.47247 31.6669C4.47247 31.3425 4.72738 31.0876 5.0518 31.0876H9.08398C9.40841 31.0876 9.66332 31.3425 9.66332 31.6669C9.66332 31.9914 9.40841 32.2463 9.08398 32.2463Z" fill="#00985F"/>
</svg>
