<svg width="88" height="27" viewBox="0 0 88 27" fill="none" xmlns="http://www.w3.org/2000/svg">
<g clip-path="url(#clip0_3_133)">
<path d="M14.0982 6.79971V13.7585C14.0982 14.0766 13.864 14.3152 13.5517 14.3152H12.732C12.6929 14.3152 12.6539 14.3549 12.6539 14.3947V20.2401C12.8491 20.2401 13.0443 20.2798 13.2785 20.2798C16.9479 20.2798 19.9146 17.2577 19.9146 13.5199C19.9146 10.0604 17.3773 7.19735 14.0982 6.79971ZM13.9421 17.218C13.4737 17.218 13.1223 16.8203 13.1223 16.3829C13.1223 15.9057 13.5127 15.5479 13.9421 15.5479C14.4105 15.5479 14.7619 15.9455 14.7619 16.3829C14.8009 16.8203 14.4105 17.218 13.9421 17.218ZM15.8939 17.218C15.4255 17.218 15.0741 16.8203 15.0741 16.3829C15.0741 15.9057 15.4645 15.5479 15.8939 15.5479C16.3623 15.5479 16.7137 15.9455 16.7137 16.3829C16.7137 16.8203 16.3623 17.218 15.8939 17.218ZM17.8457 17.218C17.3773 17.218 17.026 16.8203 17.026 16.3829C17.026 15.9057 17.4163 15.5479 17.8457 15.5479C18.3142 15.5479 18.6655 15.9455 18.6655 16.3829C18.6655 16.8203 18.3142 17.218 17.8457 17.218Z" fill="#00985F"/>
<path d="M13.2785 6.75994C9.60909 6.75994 6.64233 9.78203 6.64233 13.5199C6.64233 16.7806 8.8674 19.4845 11.8732 20.1208V14.0368C11.8732 13.7585 12.1074 13.5199 12.3807 13.4801H13.2004C13.2395 13.4801 13.2785 13.4404 13.2785 13.4006V6.75994ZM11.9903 12.327C11.5219 12.327 11.1705 11.9293 11.1705 11.4919C11.1705 11.0147 11.5609 10.6568 11.9903 10.6568C12.4587 10.6568 12.8101 11.0545 12.8101 11.4919C12.8101 11.9293 12.4587 12.327 11.9903 12.327ZM79.7182 10.458V13.0029H76.361V10.458H74.6825V17.218H76.361V14.4742H79.7182V17.218H81.3577V10.458H79.7182ZM52.0805 11.2135C51.8073 10.6171 51.2607 10.299 50.7142 10.299C50.1677 10.299 49.6212 10.6171 49.348 11.2135L46.6545 17.218H48.4111L48.9966 15.7865H52.4318L53.0174 17.218H54.774L52.0805 11.2135ZM49.5432 14.4345L50.5581 11.9691C50.5971 11.8895 50.6362 11.8895 50.6752 11.8895C50.7142 11.8895 50.7923 11.8895 50.7923 11.9691L51.8073 14.4345H49.5432ZM32.3282 9.22533C31.5475 9.22533 31.04 9.66274 30.6887 10.4978L28.5417 15.5876L26.3947 10.4978C26.0433 9.66274 25.5359 9.22533 24.7551 9.22533C24.0135 9.22533 23.2718 9.74227 23.2718 10.8954V17.1782H24.9113V11.0943L27.0973 16.1443C27.3706 16.8601 27.878 17.2975 28.5417 17.2975C29.2443 17.2975 29.7127 16.8601 29.986 16.1443L32.172 11.0943V17.218H33.8116V10.9352C33.8116 9.78203 33.0699 9.22533 32.3282 9.22533ZM36.7393 15.7865C36.6612 15.7865 36.5831 15.7069 36.5831 15.6274V14.4345H40.721V13.0427H36.5831V12.0088C36.5831 11.9293 36.6612 11.8498 36.7393 11.8498H40.8381V10.4183H35.9195C35.334 10.4183 34.9436 10.8954 34.9436 11.4124V16.1443C34.9436 16.6613 35.373 17.1384 35.9195 17.1384H40.8381V15.7069H36.7393V15.7865ZM43.6096 17.218V12.0486C43.6096 11.9691 43.6877 11.8895 43.7658 11.8895H47.8646V10.458H42.946C42.3605 10.458 41.9701 10.9352 41.9701 11.4521V17.1782H43.6096V17.218ZM73.5895 13.838C73.5895 11.4919 72.5745 10.3785 70.0762 10.3785H69.4907C66.9923 10.3785 65.9774 11.4919 65.9774 13.838C65.9774 16.1443 66.9923 17.2975 69.4907 17.2975H70.0372C72.5745 17.2577 73.5895 16.1443 73.5895 13.838ZM70.0372 15.866H69.4907C68.1244 15.866 67.5779 15.2297 67.5779 13.838C67.5779 12.486 68.0463 11.81 69.4907 11.81H70.0372C71.4425 11.81 71.95 12.486 71.95 13.838C71.95 15.2297 71.4425 15.866 70.0372 15.866ZM61.3711 9.38439H58.0921C55.6328 9.38439 54.6569 10.6568 54.6569 12.8439C54.6569 13.2018 54.6959 13.5199 54.735 13.7982C55.0082 15.349 55.9061 16.3034 58.2092 16.3034H58.9509V17.1782H60.5904V16.3034H61.2931C63.5962 16.3034 64.494 15.349 64.7673 13.7982C64.8063 13.5199 64.8454 13.2018 64.8454 12.8439C64.8063 10.6568 63.7914 9.38439 61.3711 9.38439ZM58.8728 14.9116H58.1311C56.9991 14.9116 56.6087 14.4742 56.3745 13.7982C56.2964 13.5596 56.2964 13.2018 56.2964 12.8439C56.2964 11.4124 56.96 10.8159 57.8969 10.8159H58.9118V14.9116H58.8728ZM63.0887 13.838C62.8545 14.514 62.4251 14.9514 61.3321 14.9514H60.5904V10.8159H61.6054C62.5422 10.8159 63.2058 11.4124 63.2058 12.8439C63.1668 13.2415 63.1668 13.5596 63.0887 13.838Z" fill="#00985F"/>
</g>
<defs>
<clipPath id="clip0_3_133">
<rect width="88" height="27" fill="white"/>
</clipPath>
</defs>
</svg>
