<svg width="51" height="51" viewBox="0 0 51 51" fill="none" xmlns="http://www.w3.org/2000/svg">
<path d="M25.4998 0C11.4166 0 0 11.4166 0 25.4998C0 39.5829 11.4166 51 25.4998 51C39.5829 51 51 39.5829 51 25.4998C50.9841 11.4231 39.5769 0.0157781 25.4998 0ZM25.4998 48.4497C12.8248 48.4497 2.54983 38.1748 2.54983 25.4998C2.54983 12.8248 12.8248 2.54983 25.4998 2.54983C38.1748 2.54983 48.4497 12.8248 48.4497 25.4998C48.4352 38.1686 38.1686 48.4352 25.4998 48.4497Z" fill="#00985F"/>
<path d="M22.5142 15.6152C21.9838 15.1514 21.1784 15.2057 20.7148 15.7357C20.2516 16.266 20.3057 17.0714 20.8357 17.5351L29.9387 25.4998L20.8353 33.465C20.3048 33.9286 20.2511 34.734 20.7143 35.2639C21.178 35.7944 21.9834 35.8485 22.5138 35.3849L32.7136 26.4597C32.8505 26.34 32.9602 26.1924 33.0354 26.0269C33.1105 25.8613 33.1494 25.6815 33.1494 25.4997C33.1494 25.3179 33.1105 25.1382 33.0354 24.9726C32.9602 24.807 32.8505 24.6594 32.7136 24.5397L22.5142 15.6152Z" fill="white"/>
</svg>
