<svg width="51" height="51" viewBox="0 0 51 51" fill="none" xmlns="http://www.w3.org/2000/svg">
<path d="M25.5002 51C39.5834 51 51 39.5834 51 25.5002C51 11.4171 39.5834 0 25.5002 0C11.4171 0 0 11.4171 0 25.5002C0.0158958 39.5769 11.4231 50.9842 25.5002 51ZM25.5002 2.55031C38.1752 2.55031 48.4502 12.8252 48.4502 25.5002C48.4502 38.1752 38.1752 48.4502 25.5002 48.4502C12.8252 48.4502 2.55031 38.1752 2.55031 25.5002C2.56477 12.8314 12.8314 2.56477 25.5002 2.55031Z" fill="#00985F"/>
<path d="M28.4858 35.3848C29.0162 35.8486 29.8216 35.7943 30.2852 35.2643C30.7484 34.734 30.6943 33.9286 30.1643 33.4649L21.0613 25.5002L30.1647 17.535C30.6952 17.0714 30.7489 16.266 30.2857 15.7361C29.822 15.2056 29.0166 15.1515 28.4862 15.6151L18.2864 24.5403C18.1495 24.66 18.0398 24.8076 17.9646 24.9731C17.8895 25.1387 17.8506 25.3185 17.8506 25.5003C17.8506 25.6821 17.8895 25.8618 17.9646 26.0274C18.0398 26.193 18.1495 26.3406 18.2864 26.4603L28.4858 35.3848Z" fill="white"/>
</svg>
