<svg width="52" height="51" viewBox="0 0 52 51" fill="none" xmlns="http://www.w3.org/2000/svg">
<path d="M25.4894 9.28801C16.5448 9.28801 9.26859 16.5642 9.26859 25.5089C9.26859 34.4535 16.5448 41.7297 25.4894 41.7297C34.4341 41.7297 41.7103 34.4535 41.7103 25.5089C41.7103 16.5642 34.4341 9.28801 25.4894 9.28801ZM25.4894 39.4124C17.8228 39.4124 11.5858 33.1755 11.5858 25.5089C11.5858 17.8422 17.8228 11.6053 25.4894 11.6053C33.1561 11.6053 39.393 17.8422 39.393 25.5089C39.393 33.1755 33.1561 39.4124 25.4894 39.4124Z" fill="#00985F"/>
<path d="M31.6221 19.0552L23.1722 27.5051L19.3556 23.6897C19.1384 23.4724 18.8437 23.3504 18.5365 23.3504C18.2292 23.3504 17.9346 23.4724 17.7173 23.6897C17.5001 23.907 17.378 24.2016 17.378 24.5089C17.378 24.8161 17.5001 25.1108 17.7173 25.328L22.353 29.9625C22.5703 30.1797 22.8649 30.3018 23.1722 30.3018C23.4794 30.3018 23.774 30.1797 23.9913 29.9625L33.2604 20.6935C33.4776 20.4762 33.5997 20.1816 33.5997 19.8743C33.5997 19.5671 33.4776 19.2724 33.2604 19.0552C33.0431 18.8379 32.7485 18.7159 32.4412 18.7159C32.134 18.7159 31.8393 18.8379 31.6221 19.0552Z" fill="#00985F"/>
<path d="M48.5114 21.7398C48.0341 21.3864 47.8858 20.6878 48.2021 20.1849C49.3341 18.3844 50.9782 14.6027 45.3171 13.2158C44.7401 13.0744 44.3126 12.4777 44.4354 11.8984C44.9788 9.35637 44.2176 5.66497 39.101 6.56406C38.5182 6.66602 37.8984 6.26514 37.7837 5.68234C37.4002 3.73353 35.748 -0.213934 30.8157 2.79619C30.3082 3.10555 29.4995 2.93755 29.2608 2.48568C28.4949 1.03855 25.1407 -2.29831 21.7181 2.48568C21.3728 2.96883 20.5791 3.0928 20.1632 2.79503C17.9178 1.18685 14.2901 0.784807 13.194 5.68003C13.0677 6.24196 12.4699 6.67298 11.8755 6.56059C9.91278 6.18751 5.60499 6.31032 6.54464 11.8949C6.64312 12.48 6.25035 13.1254 5.66408 13.2135C3.3781 13.5552 -0.14646 15.3917 2.77677 20.1815C3.08612 20.6878 2.99691 21.4687 2.46741 21.7364C0.438649 22.7617 -1.88441 26.4091 2.46741 29.2825C2.96215 29.6093 3.08612 30.3125 2.77677 30.8189C-0.14646 35.6087 3.3781 37.4439 5.66408 37.7869C6.25151 37.8749 6.64312 38.5203 6.54464 39.1054C5.60499 44.69 9.91278 44.8128 11.8778 44.4386C12.4722 44.325 13.0701 44.7572 13.1963 45.3191C14.2924 50.2155 17.9201 49.8123 20.1655 48.2041C20.5815 47.9064 21.3751 48.0303 21.7204 48.5135C25.143 53.2986 28.4972 49.9618 29.2631 48.5135C29.5018 48.0628 30.3105 47.8936 30.818 48.203C35.7503 51.2131 37.4025 47.2657 37.786 45.3168C37.9007 44.734 38.5206 44.3331 39.1034 44.4351C44.2199 45.3342 44.9799 41.6428 44.4377 39.1008C44.3137 38.5215 44.7424 37.9248 45.3194 37.7834C50.9817 36.3965 49.3376 32.6147 48.2044 30.8142C47.8881 30.3114 48.0248 29.5977 48.5114 29.2617C50.0246 28.2154 53.2966 25.2806 48.5114 21.7398ZM46.8569 33.2844C47.2509 33.9182 47.0075 34.7895 46.1108 35.0849C44.4678 35.6272 41.4403 36.0733 42.2479 40.8688C42.402 41.7807 41.9142 42.3264 40.8691 42.2465C39.2795 42.1248 36.0063 41.4818 35.0875 46.1105C34.9056 47.0247 34.01 47.2228 33.287 46.8578C30.168 45.2832 28.9201 45.0816 26.4662 48.2146C25.9969 48.8136 25.019 48.7881 24.5162 48.2146C23.1977 46.7118 21.7042 44.4015 17.6942 46.859C16.9967 47.2865 16.2018 46.9563 15.8936 46.1128C15.093 43.916 14.8567 41.5745 10.1109 42.2499C9.37865 42.3542 8.60237 41.8583 8.7333 40.8723C8.9824 38.9861 9.26858 35.9574 4.8681 35.0884C4.18914 34.954 3.65849 34.048 4.12194 33.2879C5.87958 30.4133 5.63627 28.6152 2.73969 26.4543C2.41296 26.211 1.88115 25.1647 2.76518 24.5321C5.58645 22.5138 5.87958 20.587 4.12194 17.7113C3.65733 16.9512 4.18914 16.044 4.8681 15.9107C9.26858 15.0418 8.9824 12.0131 8.7333 10.1269C8.60237 9.14086 9.37981 8.64497 10.1109 8.74924C14.8567 9.42357 15.093 7.08313 15.8936 4.88636C16.2007 4.04172 16.9967 3.71267 17.6942 4.14021C21.7053 6.59766 23.1988 4.28735 24.5162 2.78461C25.019 2.21108 25.9958 2.18559 26.4662 2.78461C28.9201 5.91755 30.168 5.71594 33.287 4.14136C34.01 3.77639 34.9056 3.97452 35.0875 4.88868C36.0063 9.51742 39.2795 8.87438 40.8691 8.75272C41.9154 8.67277 42.402 9.21849 42.2479 10.1303C41.4403 14.9271 44.4678 15.372 46.1108 15.9142C47.0075 16.2097 47.2509 17.0821 46.8569 17.7147C44.2801 21.8534 47.0029 23.4986 48.2137 24.5368C48.6864 24.9423 48.9587 25.9005 48.3226 26.3964C46.8755 27.3974 44.2801 29.1458 46.8569 33.2844Z" fill="#00985F"/>
</svg>
