<svg width="42" height="6" viewBox="0 0 42 6" fill="none" xmlns="http://www.w3.org/2000/svg">
<path d="M3 0L3.67354 2.07295H5.85317L4.08981 3.3541L4.76336 5.42705L3 4.1459L1.23664 5.42705L1.91019 3.3541L0.146831 2.07295H2.32646L3 0Z" fill="#B98E1F"/>
<path d="M12 0L12.6735 2.07295H14.8532L13.0898 3.3541L13.7634 5.42705L12 4.1459L10.2366 5.42705L10.9102 3.3541L9.14683 2.07295H11.3265L12 0Z" fill="#B98E1F"/>
<path d="M21 0L21.6735 2.07295H23.8532L22.0898 3.3541L22.7634 5.42705L21 4.1459L19.2366 5.42705L19.9102 3.3541L18.1468 2.07295H20.3265L21 0Z" fill="#B98E1F"/>
<path d="M30 0L30.6735 2.07295H32.8532L31.0898 3.3541L31.7634 5.42705L30 4.1459L28.2366 5.42705L28.9102 3.3541L27.1468 2.07295H29.3265L30 0Z" fill="#B98E1F"/>
<path d="M39 0L39.6735 2.07295H41.8532L40.0898 3.3541L40.7634 5.42705L39 4.1459L37.2366 5.42705L37.9102 3.3541L36.1468 2.07295H38.3265L39 0Z" fill="#B98E1F"/>
</svg>
