<svg width="64" height="50" viewBox="0 0 64 50" fill="none" xmlns="http://www.w3.org/2000/svg">
<path d="M40.6431 44.4149C50.1013 44.4149 57.7961 36.7201 57.7961 27.2619C57.7961 17.8037 50.1013 10.1088 40.6431 10.1088C31.1849 10.1088 23.49 17.8036 23.49 27.2619C23.49 36.7202 31.1849 44.4149 40.6431 44.4149ZM27.8716 26.3429H25.3561C25.5662 22.8109 26.9785 19.5976 29.1889 17.1072L30.9625 18.8808C31.1419 19.0603 31.3771 19.1499 31.6122 19.1499C31.8474 19.1499 32.0826 19.0603 32.262 18.8808C32.4343 18.7084 32.5311 18.4747 32.5311 18.231C32.5311 17.9874 32.4343 17.7536 32.262 17.5813L30.4884 15.8077C32.9788 13.5973 36.1921 12.185 39.7241 11.9749V14.4904C39.7241 14.9979 40.1354 15.4093 40.643 15.4093C41.1506 15.4093 41.5619 14.9979 41.5619 14.4904V11.9749C45.0939 12.185 48.3071 13.5973 50.7975 15.8077L49.0239 17.5813C48.8954 17.7098 48.8079 17.8736 48.7724 18.0518C48.737 18.2301 48.7552 18.4148 48.8247 18.5827C48.8943 18.7506 49.0121 18.8942 49.1632 18.9951C49.3143 19.0961 49.492 19.15 49.6737 19.1499C49.7944 19.1501 49.914 19.1264 50.0255 19.0802C50.137 19.034 50.2383 18.9662 50.3236 18.8808L52.0971 17.1072C54.3073 19.5976 55.7197 22.8107 55.9297 26.3428H53.4143C52.9067 26.3428 52.4954 26.7542 52.4954 27.2617C52.4954 27.7691 52.9067 28.1806 53.4143 28.1806H55.9297C55.7196 31.7126 54.3073 34.9258 52.0969 37.4162L50.3234 35.6427C50.1509 35.4716 49.9175 35.3758 49.6745 35.3763C49.4315 35.3769 49.1986 35.4736 49.0268 35.6455C48.8549 35.8173 48.7581 36.0502 48.7576 36.2932C48.7571 36.5362 48.8528 36.7695 49.0239 36.9421L50.7975 38.7157C48.307 40.9261 45.0939 42.3384 41.5619 42.5485V40.0331C41.5619 39.5256 41.1506 39.1142 40.643 39.1142C40.1354 39.1142 39.7241 39.5256 39.7241 40.0331V42.5485C36.1919 42.3384 32.9788 40.9261 30.4884 38.7157L32.262 36.9423C32.4343 36.7699 32.5311 36.5362 32.5311 36.2925C32.5311 36.0488 32.4343 35.8151 32.262 35.6428C32.1767 35.5575 32.0754 35.4897 31.9639 35.4436C31.8524 35.3974 31.7329 35.3736 31.6122 35.3736C31.4916 35.3736 31.3721 35.3974 31.2606 35.4436C31.1491 35.4897 31.0478 35.5575 30.9625 35.6428L29.1889 37.4163C26.9785 34.9258 25.5662 31.7127 25.3561 28.1806H27.8716C28.1134 28.1778 28.3444 28.0797 28.5145 27.9077C28.6845 27.7357 28.7799 27.5036 28.7799 27.2617C28.7799 27.0199 28.6845 26.7877 28.5145 26.6157C28.3444 26.4437 28.1134 26.3457 27.8716 26.3429Z" fill="#00985F"/>
<path d="M51.785 44.948C48.4544 47.0508 44.6016 48.1622 40.6431 48.1622C29.1186 48.1622 19.7427 38.7863 19.7427 27.2618C19.7427 22.5961 21.246 18.1831 24.09 14.4999C24.2389 14.307 24.3051 14.0629 24.274 13.8211C24.2429 13.5794 24.1171 13.36 23.9242 13.211C23.7313 13.0621 23.4871 12.9959 23.2454 13.027C23.0037 13.058 22.7842 13.1839 22.6353 13.3768C19.5405 17.3846 17.9049 22.1859 17.9049 27.2618C17.9049 39.7997 28.1052 50 40.6431 50C44.9494 50 49.1416 48.7904 52.7661 46.5019C52.8692 46.438 52.9585 46.3543 53.029 46.2556C53.0996 46.157 53.1499 46.0453 53.1771 45.9271C53.2043 45.809 53.2078 45.6866 53.1874 45.567C53.1671 45.4475 53.1233 45.3331 53.0585 45.2306C52.9938 45.128 52.9094 45.0393 52.8102 44.9696C52.711 44.8998 52.599 44.8503 52.4806 44.8241C52.3622 44.7978 52.2398 44.7952 52.1204 44.8165C52.001 44.8378 51.887 44.8825 51.785 44.948ZM46.1849 5.20786V1.7246C46.1849 0.773594 45.4112 0 44.4603 0H36.8256C35.8746 0 35.101 0.773594 35.101 1.7246V5.20688C31.4468 6.12235 28.0566 7.93859 25.2348 10.5399C25.0599 10.7062 24.9574 10.9346 24.9495 11.1757C24.9415 11.4169 25.0288 11.6515 25.1923 11.8289C25.3558 12.0063 25.5826 12.1123 25.8236 12.124C26.0646 12.1356 26.3005 12.052 26.4805 11.8912C30.3485 8.32527 35.3783 6.36139 40.643 6.36139C52.1675 6.36139 61.5434 15.7373 61.5434 27.2618C61.5434 33.1772 59.0198 38.8413 54.6197 42.8014C54.53 42.8822 54.4571 42.9798 54.4052 43.0887C54.3532 43.1976 54.3232 43.3157 54.3168 43.4362C54.3105 43.5567 54.328 43.6772 54.3682 43.791C54.4085 43.9048 54.4708 44.0095 54.5515 44.0992C54.6322 44.1889 54.7298 44.2618 54.8387 44.3137C54.9476 44.3657 55.0657 44.3957 55.1862 44.4021C55.3067 44.4084 55.4273 44.3909 55.5411 44.3507C55.6548 44.3104 55.7595 44.2481 55.8492 44.1674C60.6359 39.8592 63.3812 33.6973 63.3812 27.2617C63.3813 16.635 56.053 7.68865 46.1849 5.20786ZM36.9389 4.8251V1.83781H44.3472V4.82694C43.1229 4.62515 41.8841 4.5237 40.6432 4.52358C39.3926 4.52358 38.1544 4.62552 36.9389 4.8251Z" fill="#00985F"/>
<path d="M39.6431 29.9054C39.8066 29.9054 39.9671 29.8618 40.1081 29.779C40.249 29.6962 40.3654 29.5773 40.445 29.4345L43.6148 26.2647C43.7002 26.1794 43.7679 26.078 43.814 25.9665C43.8602 25.855 43.884 25.7355 43.884 25.6149C43.884 25.4942 43.8602 25.3747 43.814 25.2632C43.7678 25.1517 43.7001 25.0504 43.6148 24.9651C43.5294 24.8797 43.4281 24.812 43.3166 24.7659C43.2051 24.7197 43.0856 24.6959 42.965 24.6959C42.8443 24.6959 42.7248 24.7197 42.6133 24.7659C42.5018 24.8121 42.4005 24.8798 42.3151 24.9651L40.5619 26.7183V22.2433C40.5619 21.7358 40.1506 21.3244 39.643 21.3244C39.1354 21.3244 38.7241 21.7358 38.7241 22.2433V28.9862C38.7241 29.1069 38.7478 29.2265 38.794 29.338C38.8402 29.4495 38.9079 29.5508 38.9932 29.6362C39.0785 29.7215 39.1799 29.7892 39.2914 29.8354C39.4029 29.8816 39.5224 29.9054 39.6431 29.9054ZM13.56 29.4692C13.56 29.2255 13.4631 28.9918 13.2908 28.8195C13.1185 28.6471 12.8848 28.5503 12.6411 28.5503H0.918904C0.675195 28.5503 0.441469 28.6471 0.269141 28.8195C0.0968128 28.9918 0 29.2255 0 29.4692C0 29.7129 0.0968128 29.9467 0.269141 30.119C0.441469 30.2913 0.675195 30.3881 0.918904 30.3881H12.6411C12.8848 30.3881 13.1185 30.2913 13.2908 30.119C13.4631 29.9467 13.56 29.7129 13.56 29.4692ZM4.58398 25.0367H13.8664C14.1101 25.0367 14.3438 24.9399 14.5161 24.7675C14.6885 24.5952 14.7853 24.3615 14.7853 24.1178C14.7853 23.8741 14.6885 23.6403 14.5161 23.468C14.3438 23.2957 14.1101 23.1989 13.8664 23.1989H4.58398C4.34027 23.1989 4.10655 23.2957 3.93422 23.468C3.76189 23.6403 3.66508 23.8741 3.66508 24.1178C3.66508 24.3615 3.76189 24.5952 3.93422 24.7675C4.10655 24.9399 4.34027 25.0367 4.58398 25.0367ZM15.0915 17.8473H7.4789C7.23519 17.8473 7.00146 17.9441 6.82913 18.1164C6.6568 18.2888 6.55999 18.5225 6.55999 18.7662C6.55999 19.0099 6.6568 19.2436 6.82913 19.416C7.00146 19.5883 7.23519 19.6851 7.4789 19.6851H15.0915C15.3352 19.6851 15.5689 19.5883 15.7412 19.416C15.9136 19.2436 16.0104 19.0099 16.0104 18.7662C16.0104 18.5225 15.9136 18.2888 15.7412 18.1164C15.5689 17.9441 15.3352 17.8473 15.0915 17.8473ZM14.7852 34.4059C14.7852 34.1622 14.6883 33.9285 14.516 33.7562C14.3437 33.5838 14.11 33.487 13.8663 33.487H4.58398C4.34027 33.487 4.10655 33.5838 3.93422 33.7562C3.76189 33.9285 3.66508 34.1622 3.66508 34.4059C3.66508 34.6496 3.76189 34.8834 3.93422 35.0557C4.10655 35.228 4.34027 35.3248 4.58398 35.3248H13.8664C14.1101 35.3248 14.3438 35.228 14.5161 35.0557C14.6884 34.8833 14.7852 34.6496 14.7852 34.4059ZM15.0915 38.8386H7.4789C7.23519 38.8386 7.00146 38.9354 6.82913 39.1077C6.6568 39.2801 6.55999 39.5138 6.55999 39.7575C6.55999 40.0012 6.6568 40.2349 6.82913 40.4073C7.00146 40.5796 7.23519 40.6764 7.4789 40.6764H15.0915C15.3352 40.6764 15.5689 40.5796 15.7412 40.4073C15.9136 40.2349 16.0104 40.0012 16.0104 39.7575C16.0104 39.5138 15.9136 39.2801 15.7412 39.1077C15.5689 38.9354 15.3352 38.8386 15.0915 38.8386Z" fill="#00985F"/>
</svg>
