<svg width="14" height="14" viewBox="0 0 14 14" fill="none" xmlns="http://www.w3.org/2000/svg">
<path d="M10.2122 8.34587L10.207 8.38962C8.92425 7.75029 8.79008 7.66513 8.62442 7.91362C8.5095 8.0857 8.17468 8.47595 8.07376 8.59145C7.97168 8.70519 7.87018 8.71394 7.69693 8.6352C7.52194 8.5477 6.9602 8.36395 6.29521 7.76896C5.77722 7.30522 5.42956 6.73648 5.32689 6.56148C5.15598 6.26632 5.51356 6.22432 5.83905 5.60833C5.89738 5.48584 5.86763 5.38959 5.82447 5.30267C5.78072 5.21517 5.43248 4.35769 5.28665 4.01586C5.14665 3.6752 5.00257 3.71837 4.89465 3.71837C4.55866 3.6892 4.31308 3.69387 4.09667 3.91903C3.15518 4.95384 3.3926 6.02132 4.19816 7.15647C5.7813 9.22843 6.62479 9.60993 8.16709 10.1396C8.58359 10.272 8.96333 10.2533 9.26374 10.2102C9.59857 10.1571 10.2945 9.78959 10.4397 9.37835C10.5885 8.96711 10.5885 8.62586 10.5447 8.54711C10.5016 8.46836 10.3872 8.42461 10.2122 8.34587Z" fill="#00985F"/>
<path d="M11.9698 2.01213C7.48461 -2.32371 0.0618322 0.820987 0.0589156 6.93771C0.0589156 8.16035 0.37916 9.35267 0.989315 10.4056L0 14L3.69535 13.0364C8.30652 15.5271 13.9974 12.2197 13.9997 6.94121C13.9997 5.08858 13.2764 3.34503 11.961 2.03488L11.9698 2.01213ZM12.8343 6.92196C12.8308 11.3745 7.94311 14.1552 4.07743 11.8825L3.86743 11.7577L1.67997 12.3264L2.26621 10.2002L2.12679 9.98149C-0.278828 6.15198 2.48495 1.14706 7.04187 1.14706C7.80286 1.14515 8.55666 1.29419 9.25966 1.58556C9.96265 1.87694 10.6009 2.30485 11.1374 2.84453C11.6768 3.37744 12.1047 4.01247 12.396 4.71253C12.6874 5.4126 12.8364 6.16369 12.8343 6.92196Z" fill="#00985F"/>
</svg>
