<svg width="42" height="39" viewBox="0 0 42 39" fill="none" xmlns="http://www.w3.org/2000/svg">
<path d="M26.4343 13.5247L26.3924 13.4828C25.0239 12.1138 23.2117 11.278 21.2819 11.1258C19.3521 10.9736 17.4313 11.5149 15.865 12.6525C14.2987 13.79 13.1897 15.4491 12.7375 17.3313C12.2853 19.2136 12.5195 21.1954 13.398 22.9204L13.7558 23.6245L13.0897 26.8598L13.0801 26.9017L16.2945 26.1404L17.0272 26.5115C18.5517 27.2689 20.2753 27.5293 21.9555 27.2562C23.6358 26.9831 25.1881 26.1902 26.3943 24.989C27.9116 23.4717 28.7674 21.416 28.7752 19.2702C28.7831 17.1245 27.9423 15.0626 26.4362 13.5342L26.4343 13.5247ZM26.107 22.6063C25.713 23.2268 25.0907 23.9842 24.3085 24.1726C22.9383 24.5057 20.8353 24.184 18.2186 21.7461L18.1862 21.7157C15.8853 19.5842 15.2878 17.8086 15.4324 16.4003C15.5123 15.5991 16.1784 14.8778 16.7398 14.4039C16.8288 14.3285 16.934 14.2749 17.0473 14.2474C17.1605 14.2198 17.2786 14.219 17.3922 14.245C17.5058 14.2711 17.6118 14.3233 17.7017 14.3974C17.7917 14.4716 17.8631 14.5657 17.9103 14.6722L18.7571 16.5868C18.8126 16.7101 18.8332 16.8462 18.8168 16.9804C18.8003 17.1146 18.7475 17.2418 18.6639 17.348L18.2357 17.9037C18.146 18.0177 18.0919 18.1555 18.0801 18.3C18.0682 18.4445 18.0992 18.5893 18.1691 18.7164C18.4089 19.1351 18.9836 19.7536 19.6212 20.3283C20.3367 20.9735 21.1303 21.5653 21.6327 21.769C21.7675 21.8229 21.9152 21.8356 22.0572 21.8054C22.1991 21.7753 22.329 21.7036 22.4302 21.5996L22.9269 21.0991C23.0227 21.0046 23.1419 20.9372 23.2723 20.9037C23.4027 20.8703 23.5396 20.872 23.6691 20.9088L25.6807 21.4797C25.7919 21.5137 25.8939 21.5727 25.9788 21.6522C26.0637 21.7317 26.1292 21.8296 26.1704 21.9384C26.2116 22.0472 26.2272 22.1639 26.2162 22.2797C26.2053 22.3955 26.1679 22.5072 26.107 22.6063Z" fill="white"/>
<path d="M32.823 2.5686H8.46314C7.25177 2.5686 6.09001 3.04982 5.23344 3.90639C4.37688 4.76296 3.89566 5.92471 3.89566 7.13608L3.89566 31.496C3.89566 32.7073 4.37688 33.8691 5.23344 34.7257C6.09001 35.5822 7.25177 36.0634 8.46314 36.0634H32.823C34.0344 36.0634 35.1962 35.5822 36.0527 34.7257C36.9093 33.8691 37.3905 32.7073 37.3905 31.496V7.13608C37.3905 5.92471 36.9093 4.76296 36.0527 3.90639C35.1962 3.04982 34.0344 2.5686 32.823 2.5686ZM31.0208 19.5634C30.9646 21.3021 30.4726 22.9988 29.5899 24.4978C28.7072 25.9968 27.4621 27.2501 25.9689 28.1426C24.4757 29.035 22.7823 29.5381 21.044 29.6056C19.3057 29.6732 17.5783 29.303 16.0204 28.529L10.7773 29.7717C10.6979 29.7903 10.6147 29.7844 10.5386 29.7548C10.4625 29.7253 10.3972 29.6735 10.351 29.6062C10.3199 29.5615 10.2982 29.5109 10.2874 29.4576C10.2766 29.4042 10.2769 29.3492 10.2882 29.296L11.3901 23.9463C10.6714 22.535 10.285 20.978 10.2606 19.3944C10.2362 17.8108 10.5743 16.2426 11.2492 14.8098C11.9241 13.377 12.9178 12.1175 14.1542 11.1278C15.3907 10.1381 16.8372 9.4444 18.383 9.09972C19.9288 8.75503 21.533 8.76854 23.0728 9.13919C24.6126 9.50985 26.0472 10.2278 27.2669 11.2382C28.4865 12.2486 29.4589 13.5246 30.1095 14.9685C30.7602 16.4125 31.0719 17.9862 31.0208 19.5691V19.5634Z" fill="white"/>
<rect x="30.0876" y="1.38477" width="1.38471" height="11.0777" transform="rotate(-90 30.0876 1.38477)" fill="#00985F"/>
<rect x="41.1653" y="11.0776" width="1.38471" height="11.0777" transform="rotate(-180 41.1653 11.0776)" fill="#00985F"/>
<rect x="2.39337" y="11.0776" width="1.38471" height="11.0777" transform="rotate(-180 2.39337 11.0776)" fill="#00985F"/>
<rect x="12.0863" width="1.38471" height="11.0777" transform="rotate(90 12.0863 0)" fill="#00985F"/>
<rect x="12.0628" y="37.45" width="1.38471" height="11.0777" transform="rotate(90.3258 12.0628 37.45)" fill="#00985F"/>
<rect x="1.04044" y="27.6943" width="1.38471" height="11.0777" transform="rotate(0.325776 1.04044 27.6943)" fill="#00985F"/>
<rect x="39.8118" y="27.9146" width="1.38471" height="11.0777" transform="rotate(0.325776 39.8118 27.9146)" fill="#00985F"/>
<rect x="30.0559" y="38.937" width="1.38471" height="11.0777" transform="rotate(-89.6742 30.0559 38.937)" fill="#00985F"/>
</svg>
